<?xml version="1.0" standalone="no"?>
<!DOCTYPE svg PUBLIC "-//W3C//DTD SVG 20010904//EN"
 "http://www.w3.org/TR/2001/REC-SVG-20010904/DTD/svg10.dtd">
<svg version="1.0" xmlns="http://www.w3.org/2000/svg"
 width="800.000000pt" height="800.000000pt" viewBox="0 0 800.000000 800.000000"
 preserveAspectRatio="xMidYMid meet">
<metadata>
Created by potrace 1.14, written by Peter Selinger 2001-2017
</metadata>
<g transform="translate(0.000000,800.000000) scale(0.100000,-0.100000)"
fill="#000000" stroke="none">
<path d="M1720 7089 c-322 -187 -615 -356 -652 -377 l-68 -37 1 -675 0 -675
279 -160 c211 -121 277 -162 267 -171 -6 -6 -210 -125 -452 -264 -242 -139
-477 -275 -523 -302 l-82 -49 2 -1047 3 -1046 245 -143 c246 -143 1752 -1013
2787 -1609 l556 -321 156 92 c86 51 795 470 1576 932 781 462 1518 897 1638
967 l217 128 0 1002 0 1002 -452 262 c-249 143 -474 273 -500 287 l-48 27 0
333 0 333 -150 87 c-83 48 -158 89 -168 91 -10 2 -86 -43 -182 -109 l-165
-112 -3 -117 -3 -117 -162 94 -162 93 -5 162 -5 162 -30 25 c-54 45 -1297 755
-1314 750 -9 -3 -196 -108 -416 -234 l-400 -230 -5 311 -5 311 -420 242 c-231
133 -496 286 -589 340 -93 54 -171 99 -175 100 -3 1 -269 -151 -591 -338z
m3153 -1000 c287 -166 525 -304 529 -308 4 -3 -292 -179 -659 -391 -591 -341
-667 -388 -679 -417 -15 -35 -8 -69 19 -91 8 -7 232 -138 498 -292 266 -153
484 -282 483 -287 -1 -4 -30 -24 -65 -44 -149 -85 -2046 -1157 -2064 -1166
-17 -9 -63 14 -299 151 -154 89 -281 167 -284 174 -2 7 4 12 13 12 9 0 28 9
42 20 14 11 32 20 39 20 8 0 14 4 14 8 0 4 28 23 63 41 34 18 80 44 102 57 22
13 51 29 65 36 14 7 27 16 30 19 3 4 33 22 67 40 35 19 78 43 97 54 19 11 72
42 118 68 45 26 90 52 98 58 8 5 26 15 40 22 14 7 43 24 65 38 22 14 56 34 77
43 39 19 55 54 39 85 -10 18 -54 49 -111 78 -52 27 -155 86 -160 92 -3 4 -16
12 -30 19 -14 7 -43 23 -65 37 -22 13 -51 29 -65 35 -13 6 -27 14 -30 18 -3 4
-16 13 -30 20 -14 7 -43 23 -65 37 -22 13 -48 27 -57 31 -24 9 -30 62 -26 234
l3 145 407 235 408 235 0 335 1 335 412 237 c227 131 418 236 425 233 7 -2
247 -140 535 -306z m627 -528 l0 -68 -517 -298 c-285 -164 -526 -303 -536
-309 -14 -9 -29 -5 -72 19 -30 16 -54 33 -52 38 2 6 1157 681 1175 686 1 1 2
-30 2 -68z m313 -346 l187 -107 0 -502 0 -502 176 -100 175 -101 159 91 159
91 3 316 3 317 410 -237 410 -237 3 -76 3 -75 -78 -45 c-43 -25 -292 -168
-553 -318 -261 -150 -484 -279 -495 -286 -19 -12 -67 13 -530 281 l-510 294
-2 155 c-1 85 -6 163 -11 173 -6 10 -170 111 -366 223 -333 192 -355 206 -335
219 11 8 233 137 492 287 423 244 474 271 492 260 11 -7 104 -61 208 -121z
m-3978 -373 l100 -57 0 -169 0 -168 -28 -24 c-16 -13 -35 -24 -43 -24 -8 0
-14 -4 -14 -9 0 -5 -12 -14 -27 -20 -16 -7 -46 -23 -68 -36 -22 -14 -51 -31
-65 -38 -14 -7 -44 -25 -68 -40 -24 -15 -53 -32 -65 -38 -12 -5 -40 -21 -62
-34 -22 -14 -51 -30 -65 -37 -14 -7 -27 -15 -30 -19 -5 -6 -30 -20 -107 -59
-50 -26 -19 -38 -326 138 l-219 125 79 45 c412 240 899 521 903 522 3 0 50
-26 105 -58z m0 -1332 c556 -321 1019 -589 1030 -596 11 -8 32 -14 48 -14 19
0 393 206 1133 625 608 344 1110 625 1115 625 5 0 9 -29 9 -64 l0 -64 -942
-532 c-519 -294 -1045 -591 -1170 -662 l-228 -130 0 -216 1 -217 129 -73 130
-73 0 -167 0 -168 467 -269 c256 -149 480 -277 497 -287 l32 -16 1039 613
1040 613 3 180 2 181 165 93 164 93 1 170 0 170 183 104 c221 127 739 426 785
453 l32 20 0 -154 0 -153 -333 -191 -332 -192 -5 -86 -5 -87 -160 -92 -160
-92 -3 -170 -3 -170 -167 -95 -167 -95 -3 -345 -3 -345 -981 -580 c-539 -319
-1007 -595 -1039 -613 l-58 -33 -540 312 -541 312 0 168 0 167 -160 93 -160
92 0 167 0 167 -170 97 -170 98 0 333 0 333 -502 290 -503 290 -5 -164 -5
-164 -155 90 c-85 49 -158 90 -162 90 -4 0 -9 -223 -10 -495 l-3 -494 -167 96
-168 97 0 903 0 903 83 -49 c45 -27 537 -311 1092 -631z m3961 43 l534 -308
-2 -79 -3 -78 -160 -93 -160 -93 -5 -181 -5 -182 -955 -563 -955 -564 -56 32
c-31 17 -216 123 -412 236 l-356 205 -3 169 -3 169 -125 72 -125 73 -3 114 -3
113 1118 632 c615 348 1124 633 1132 633 7 0 254 -138 547 -307z"/>
</g>
</svg>
